<svg width="38" height="25" viewBox="0 0 38 25" fill="none" xmlns="http://www.w3.org/2000/svg">
<path d="M35 1.27002C36.1 1.27002 37 2.17002 37 3.27002V21.27C37 22.37 36.1 23.27 35 23.27H3C1.9 23.27 1 22.37 1 21.27V3.27002C1 2.17002 1.9 1.27002 3 1.27002H35Z" fill="white"/>
<path d="M15 19.27C18.866 19.27 22 16.136 22 12.27C22 8.40403 18.866 5.27002 15 5.27002C11.134 5.27002 8 8.40403 8 12.27C8 16.136 11.134 19.27 15 19.27Z" fill="#EB001B"/>
<path d="M23 19.27C26.866 19.27 30 16.136 30 12.27C30 8.40403 26.866 5.27002 23 5.27002C19.134 5.27002 16 8.40403 16 12.27C16 16.136 19.134 19.27 23 19.27Z" fill="#F79E1B"/>
<path d="M22 12.2698C22 9.86982 20.8 7.76982 19 6.56982C17.2 7.86982 16 9.96982 16 12.2698C16 14.5698 17.2 16.7698 19 17.9698C20.8 16.7698 22 14.6698 22 12.2698Z" fill="#FBBC04"/>
</svg>
