<svg width="38" height="25" viewBox="0 0 38 25" fill="none" xmlns="http://www.w3.org/2000/svg">
<path d="M35 1.27002C36.1 1.27002 37 2.17002 37 3.27002V21.27C37 22.37 36.1 23.27 35 23.27H3C1.9 23.27 1 22.37 1 21.27V3.27002C1 2.17002 1.9 1.27002 3 1.27002H35Z" fill="white"/>
<path d="M23.9 8.57002C24.1 7.57002 23.9 6.87002 23.3 6.27002C22.7 5.57002 21.6 5.27002 20.2 5.27002H16.1C15.8 5.27002 15.6 5.47002 15.5 5.77002L14 15.87C14 16.07 14.1 16.27 14.3 16.27H17L17.4 12.87L19.2 10.67L23.9 8.57002Z" fill="#003087"/>
<path d="M23.9 8.56982L23.7 8.76982C23.2 11.5698 21.5 12.5698 19.1 12.5698H18C17.7 12.5698 17.5 12.7698 17.4 13.0698L16.8 16.9698L16.6 17.9698C16.6 18.1698 16.7 18.3698 16.9 18.3698H19C19.3 18.3698 19.5 18.1698 19.5 17.9698V17.8698L19.9 15.4698V15.3698C19.9 15.1698 20.2 14.9698 20.4 14.9698H20.7C22.8 14.9698 24.4 14.1698 24.8 11.7698C25 10.7698 24.9 9.96982 24.4 9.36982C24.3 8.86982 24.1 8.66982 23.9 8.56982Z" fill="#3086C8"/>
<path d="M23.3 8.36982C23.2 8.26982 23.1 8.26982 23 8.26982C22.9 8.26982 22.8 8.26982 22.7 8.16982C22.4 8.06982 22 8.06982 21.6 8.06982H18.6C18.5 8.06982 18.4 8.06982 18.4 8.16982C18.2 8.26982 18.1 8.36982 18.1 8.56982L17.4 12.9698V13.0698C17.4 12.7698 17.7 12.5698 18 12.5698H19.3C21.8 12.5698 23.4 11.5698 23.9 8.76982V8.56982C23.8 8.46982 23.6 8.36982 23.4 8.36982H23.3Z" fill="#012169"/>
</svg>
