<svg width="27" height="9" viewBox="0 0 27 9" fill="none" xmlns="http://www.w3.org/2000/svg">
<path d="M23.3 2.37002H23C22.6 3.37002 22.3 3.87002 22 5.37002H23.9C23.6 3.87002 23.6 3.17002 23.3 2.37002ZM26.2 8.27002H24.5C24.4 8.27002 24.4 8.27002 24.3 8.17002L24.1 7.27002L24 7.07002H21.6C21.5 7.07002 21.4 7.07002 21.4 7.27002L21.1 8.17002C21.1 8.27002 21 8.27002 21 8.27002H18.9L19.1 7.77002L22 0.970019C22 0.470019 22.3 0.27002 22.8 0.27002H24.3C24.4 0.27002 24.5 0.270019 24.5 0.470019L25.9 6.97002C26 7.37002 26.1 7.67002 26.1 8.07002C26.2 8.17002 26.2 8.17002 26.2 8.27002ZM12.8 7.97002L13.2 6.17002C13.3 6.17002 13.4 6.27002 13.4 6.27002C14.1 6.57002 14.8 6.77002 15.5 6.67002C15.7 6.67002 16 6.57002 16.2 6.47002C16.7 6.27002 16.7 5.77002 16.3 5.37002C16.1 5.17002 15.8 5.07002 15.5 4.87002C15.1 4.67002 14.7 4.47002 14.4 4.17002C13.2 3.17002 13.6 1.77002 14.3 1.07002C14.9 0.67002 15.2 0.27002 16 0.27002C17.2 0.27002 18.5 0.270019 19.1 0.470019H19.2C19.1 1.07002 19 1.57002 18.8 2.17002C18.3 1.97002 17.8 1.77002 17.3 1.77002C17 1.77002 16.7 1.77002 16.4 1.87002C16.2 1.87002 16.1 1.97002 16 2.07002C15.8 2.27002 15.8 2.57002 16 2.77002L16.5 3.17002C16.9 3.37002 17.3 3.57002 17.6 3.77002C18.1 4.07002 18.6 4.57002 18.7 5.17002C18.9 6.07002 18.6 6.87002 17.8 7.47002C17.3 7.87002 17.1 8.07002 16.4 8.07002C15 8.07002 13.9 8.17002 13 7.87002C12.9 8.07002 12.9 8.07002 12.8 7.97002ZM9.3 8.27002C9.4 7.57002 9.4 7.57002 9.5 7.27002C10 5.07002 10.5 2.77002 10.9 0.57002C11 0.37002 11 0.27002 11.2 0.27002H13C12.8 1.47002 12.6 2.37002 12.3 3.47002C12 4.97002 11.7 6.47002 11.3 7.97002C11.3 8.17002 11.2 8.17002 11 8.17002M0 0.470019C0 0.370019 0.2 0.27002 0.3 0.27002H3.7C4.2 0.27002 4.6 0.57002 4.7 1.07002L5.6 5.47002C5.6 5.57002 5.6 5.57002 5.7 5.67002C5.7 5.57002 5.8 5.57002 5.8 5.57002L7.9 0.470019C7.8 0.370019 7.9 0.27002 8 0.27002H10.1C10.1 0.37002 10.1 0.370019 10 0.470019L6.9 7.77002C6.8 7.97002 6.8 8.07002 6.7 8.17002C6.6 8.27002 6.4 8.17002 6.2 8.17002H4.7C4.6 8.17002 4.5 8.17002 4.5 7.97002L2.9 1.77002C2.7 1.57002 2.4 1.27002 2 1.17002C1.4 0.870019 0.3 0.670019 0.0999999 0.670019L0 0.470019Z" fill="#142688"/>
</svg>
