<svg width="38" height="25" viewBox="0 0 38 25" fill="none" xmlns="http://www.w3.org/2000/svg">
<path d="M35 1.27002C36.1 1.27002 37 2.17002 37 3.27002V21.27C37 22.37 36.1 23.27 35 23.27H3C1.9 23.27 1 22.37 1 21.27V3.27002C1 2.17002 1.9 1.27002 3 1.27002H35Z" fill="#006FCF"/>
<path d="M22.012 20.2062V11.7852L37 11.7982V14.1242L35.268 15.9762L37 17.8432V20.2182H34.234L32.764 18.5962L31.304 20.2242L22.012 20.2042V20.2062Z" fill="white"/>
<path d="M23.013 19.2819V12.7119H28.585V14.2249H24.817V15.2529H28.495V16.7409H24.817V17.7509H28.585V19.2819H23.013Z" fill="#006FCF"/>
<path d="M28.557 19.2819L31.64 15.9929L28.557 12.7109H30.943L32.827 14.7939L34.717 12.7119H37V12.7629L33.983 15.9929L37 19.1899V19.2829H34.693L32.776 17.1799L30.878 19.2839H28.557V19.2819Z" fill="#006FCF"/>
<path d="M22.71 4.31006H26.324L27.593 7.19106V4.31006H32.053L32.823 6.46906L33.594 4.31006H37V12.7311H19L22.71 4.31006Z" fill="white"/>
<path d="M23.395 5.2251L20.479 11.7911H22.479L23.029 10.4761H26.009L26.559 11.7911H28.609L25.705 5.2251H23.395ZM23.645 9.0021L24.52 6.9121L25.393 9.0021H23.645Z" fill="#006FCF"/>
<path d="M28.581 11.7901V5.22314L31.392 5.23314L32.84 9.27014L34.296 5.22414H37V11.7891L35.26 11.8051V7.29514L33.616 11.7891H32.026L30.35 7.28014V11.7901H28.582H28.581Z" fill="#006FCF"/>
</svg>
