<svg width="38" height="25" viewBox="0 0 38 25" fill="none" xmlns="http://www.w3.org/2000/svg">
<path d="M35 1.27002C36.1 1.27002 37 2.17002 37 3.27002V21.27C37 22.37 36.1 23.27 35 23.27H3C1.9 23.27 1 22.37 1 21.27V3.27002C1 2.17002 1.9 1.27002 3 1.27002H35Z" fill="white"/>
<path d="M18.093 12.2462V15.4462H17.075V7.54625H19.766C20.0884 7.54079 20.4088 7.59912 20.7086 7.71788C21.0084 7.83663 21.2818 8.01348 21.513 8.23825C21.732 8.44264 21.9087 8.6882 22.0327 8.96089C22.1568 9.23357 22.2259 9.52804 22.2362 9.82745C22.2464 10.1269 22.1975 10.4254 22.0923 10.7059C21.9871 10.9864 21.8276 11.2434 21.623 11.4622L21.513 11.5782C21.043 12.0252 20.415 12.2682 19.766 12.2522L18.093 12.2462ZM18.093 8.51425V11.3022H19.791C20.168 11.3142 20.532 11.1672 20.796 10.8982C20.9848 10.7014 21.1117 10.4534 21.1606 10.1851C21.2096 9.91675 21.1787 9.63994 21.0716 9.38908C20.9645 9.13822 20.786 8.92438 20.5583 8.77417C20.3306 8.62396 20.0638 8.544 19.791 8.54425L18.093 8.51425ZM24.577 9.86225C25.227 9.83225 25.863 10.0502 26.355 10.4752C26.8 10.9052 27.037 11.5052 27.005 12.1242V15.4582H26.036V14.6922H25.987C25.8132 14.9796 25.5675 15.2166 25.2741 15.3798C24.9807 15.5431 24.6498 15.627 24.314 15.6232C23.7659 15.641 23.2314 15.4506 22.818 15.0902C22.6221 14.9305 22.4652 14.7283 22.359 14.4989C22.2528 14.2695 22.2001 14.019 22.205 13.7662C22.1935 13.5108 22.2431 13.2564 22.3497 13.024C22.4563 12.7916 22.6169 12.5881 22.818 12.4302C23.3114 12.0754 23.9086 11.8943 24.516 11.9152C25.033 11.8952 25.546 12.0082 26.006 12.2462V12.0382C26.0094 11.8663 25.9736 11.6958 25.9014 11.5397C25.8291 11.3836 25.7223 11.246 25.589 11.1372C25.3213 10.8939 24.9707 10.7622 24.609 10.7692C24.3463 10.7668 24.0874 10.8313 23.8566 10.9568C23.6258 11.0822 23.4308 11.2645 23.29 11.4862L22.395 10.9222C22.638 10.574 22.9661 10.2938 23.3481 10.1083C23.73 9.92276 24.1531 9.83805 24.577 9.86225ZM23.29 13.7902C23.2876 13.9198 23.3171 14.0479 23.3758 14.1633C23.4346 14.2788 23.5209 14.378 23.627 14.4522C23.85 14.6282 24.127 14.7212 24.412 14.7152C24.841 14.7142 25.252 14.5452 25.558 14.2432C25.863 13.9572 26.036 13.5582 26.036 13.1402C25.651 12.8666 25.1833 12.7344 24.712 12.7662C24.3461 12.7518 23.9852 12.8549 23.682 13.0602C23.5619 13.1406 23.4634 13.2491 23.3951 13.3764C23.3267 13.5037 23.2907 13.6458 23.29 13.7902ZM32.576 10.0402L29.186 17.8302H28.138L29.419 15.1022L27.195 10.0402H28.298L29.91 13.9252L31.479 10.0402H32.576Z" fill="#646464"/>
<path d="M13.986 11.5538C13.986 11.2458 13.962 10.9378 13.913 10.6338H9.62299V12.3808H12.074C12.0241 12.6584 11.9186 12.9231 11.764 13.1591C11.6094 13.395 11.4087 13.5973 11.174 13.7538V14.8878H12.638C13.0831 14.4571 13.4331 13.9379 13.6652 13.3636C13.8974 12.7894 14.0067 12.1728 13.986 11.5538Z" fill="#4285F4"/>
<path d="M9.62903 15.991C10.7353 16.0213 11.8117 15.6291 12.639 14.894L11.173 13.754C10.8208 13.9798 10.4217 14.1224 10.006 14.1708C9.59043 14.2192 9.16924 14.1722 8.77451 14.0333C8.37978 13.8945 8.02191 13.6675 7.72812 13.3695C7.43432 13.0716 7.21233 12.7106 7.07903 12.314H5.57703V13.484C5.95288 14.237 6.53107 14.8704 7.24678 15.3133C7.96249 15.7561 8.78741 15.9907 9.62903 15.991Z" fill="#34A853"/>
<path d="M7.07899 12.32C6.88879 11.7573 6.88879 11.1477 7.07899 10.585V9.41504H5.57699C5.25678 10.0465 5.0899 10.7445 5.0899 11.4525C5.0899 12.1605 5.25678 12.8586 5.57699 13.49L7.07899 12.32Z" fill="#FBBC04"/>
<path d="M9.62903 8.71021C10.276 8.69839 10.9015 8.94282 11.369 9.39021L12.669 8.09721C11.8401 7.31922 10.7407 6.89487 9.60403 6.91421C8.76739 6.9184 7.94827 7.15421 7.23746 7.59549C6.52665 8.03676 5.95194 8.66627 5.57703 9.41421L7.07903 10.5852C7.25465 10.0453 7.59512 9.57402 8.05253 9.23768C8.50995 8.90134 9.0613 8.71687 9.62903 8.71021Z" fill="#EA4335"/>
</svg>
